<mxfile host="app.diagrams.net" modified="2024-04-01T10:18:43.768Z" agent="Mozilla/5.0 (Windows NT 10.0; Win64; x64) AppleWebKit/537.36 (KHTML, like Gecko) Chrome/123.0.0.0 Safari/537.36" etag="J_gKTW63J8r9chFprdav" version="24.2.1" type="device">
  <diagram name="페이지-1" id="GVsLZoonklr_sbpD06XT">
    <mxGraphModel dx="458" dy="814" grid="1" gridSize="10" guides="1" tooltips="1" connect="1" arrows="1" fold="1" page="1" pageScale="1" pageWidth="1654" pageHeight="1169" math="0" shadow="0">
      <root>
        <mxCell id="0" />
        <mxCell id="1" parent="0" />
        <mxCell id="H4DuFjo4WlE8ik4pSTZ8-5" value="" style="edgeStyle=none;curved=1;rounded=0;orthogonalLoop=1;jettySize=auto;html=1;fontSize=12;startSize=8;endSize=8;labelBackgroundColor=none;fontColor=default;" edge="1" parent="1" source="H4DuFjo4WlE8ik4pSTZ8-3" target="H4DuFjo4WlE8ik4pSTZ8-4">
          <mxGeometry relative="1" as="geometry" />
        </mxCell>
        <mxCell id="H4DuFjo4WlE8ik4pSTZ8-3" value="몬스터 생성" style="rounded=1;whiteSpace=wrap;html=1;labelBackgroundColor=none;" vertex="1" parent="1">
          <mxGeometry x="190" y="120" width="120" height="60" as="geometry" />
        </mxCell>
        <mxCell id="H4DuFjo4WlE8ik4pSTZ8-45" value="" style="edgeStyle=none;curved=1;rounded=0;orthogonalLoop=1;jettySize=auto;html=1;fontSize=12;startSize=8;endSize=8;" edge="1" parent="1" source="H4DuFjo4WlE8ik4pSTZ8-4" target="H4DuFjo4WlE8ik4pSTZ8-44">
          <mxGeometry relative="1" as="geometry" />
        </mxCell>
        <mxCell id="H4DuFjo4WlE8ik4pSTZ8-4" value="순찰" style="rounded=1;whiteSpace=wrap;html=1;labelBackgroundColor=none;" vertex="1" parent="1">
          <mxGeometry x="190" y="210" width="120" height="60" as="geometry" />
        </mxCell>
        <mxCell id="H4DuFjo4WlE8ik4pSTZ8-12" style="edgeStyle=none;curved=1;rounded=0;orthogonalLoop=1;jettySize=auto;html=1;exitX=1;exitY=0.5;exitDx=0;exitDy=0;entryX=1;entryY=0.5;entryDx=0;entryDy=0;fontSize=12;startSize=8;endSize=8;strokeColor=none;" edge="1" parent="1" source="H4DuFjo4WlE8ik4pSTZ8-8" target="H4DuFjo4WlE8ik4pSTZ8-4">
          <mxGeometry relative="1" as="geometry" />
        </mxCell>
        <mxCell id="H4DuFjo4WlE8ik4pSTZ8-18" style="edgeStyle=elbowEdgeStyle;rounded=0;orthogonalLoop=1;jettySize=auto;html=1;exitX=1;exitY=0.5;exitDx=0;exitDy=0;entryX=1;entryY=0.5;entryDx=0;entryDy=0;fontSize=12;startSize=8;endSize=8;strokeWidth=2;fillColor=#f8cecc;strokeColor=#b85450;" edge="1" parent="1" source="H4DuFjo4WlE8ik4pSTZ8-8" target="H4DuFjo4WlE8ik4pSTZ8-4">
          <mxGeometry relative="1" as="geometry">
            <Array as="points">
              <mxPoint x="360" y="300" />
            </Array>
          </mxGeometry>
        </mxCell>
        <mxCell id="H4DuFjo4WlE8ik4pSTZ8-24" value="" style="edgeStyle=none;curved=1;rounded=0;orthogonalLoop=1;jettySize=auto;html=1;fontSize=12;startSize=8;endSize=8;" edge="1" parent="1" source="H4DuFjo4WlE8ik4pSTZ8-8" target="H4DuFjo4WlE8ik4pSTZ8-23">
          <mxGeometry relative="1" as="geometry" />
        </mxCell>
        <mxCell id="H4DuFjo4WlE8ik4pSTZ8-8" value="적을 식별&lt;br&gt;&amp;nbsp;했는가?" style="rhombus;whiteSpace=wrap;html=1;rounded=0;labelBackgroundColor=none;strokeColor=default;" vertex="1" parent="1">
          <mxGeometry x="205" y="420" width="90" height="80" as="geometry" />
        </mxCell>
        <mxCell id="H4DuFjo4WlE8ik4pSTZ8-25" style="edgeStyle=elbowEdgeStyle;rounded=0;orthogonalLoop=1;jettySize=auto;html=1;exitX=0;exitY=0.5;exitDx=0;exitDy=0;fontSize=12;startSize=8;endSize=8;strokeWidth=2;fillColor=#f8cecc;strokeColor=#b85450;" edge="1" parent="1" source="H4DuFjo4WlE8ik4pSTZ8-23" target="H4DuFjo4WlE8ik4pSTZ8-4">
          <mxGeometry relative="1" as="geometry">
            <mxPoint x="250" y="290" as="targetPoint" />
            <Array as="points">
              <mxPoint x="20" y="400" />
            </Array>
          </mxGeometry>
        </mxCell>
        <mxCell id="H4DuFjo4WlE8ik4pSTZ8-28" value="" style="edgeStyle=none;curved=1;rounded=0;orthogonalLoop=1;jettySize=auto;html=1;fontSize=12;startSize=8;endSize=8;" edge="1" parent="1" source="H4DuFjo4WlE8ik4pSTZ8-23" target="H4DuFjo4WlE8ik4pSTZ8-27">
          <mxGeometry relative="1" as="geometry" />
        </mxCell>
        <mxCell id="H4DuFjo4WlE8ik4pSTZ8-23" value="적에게 근접할&lt;br&gt;&amp;nbsp;수 있는가?" style="rhombus;whiteSpace=wrap;html=1;rounded=0;labelBackgroundColor=none;strokeColor=default;" vertex="1" parent="1">
          <mxGeometry x="190" y="520" width="120" height="110" as="geometry" />
        </mxCell>
        <mxCell id="H4DuFjo4WlE8ik4pSTZ8-30" value="" style="edgeStyle=none;curved=1;rounded=0;orthogonalLoop=1;jettySize=auto;html=1;fontSize=12;startSize=8;endSize=8;" edge="1" parent="1" source="H4DuFjo4WlE8ik4pSTZ8-27" target="H4DuFjo4WlE8ik4pSTZ8-29">
          <mxGeometry relative="1" as="geometry" />
        </mxCell>
        <mxCell id="H4DuFjo4WlE8ik4pSTZ8-33" style="edgeStyle=elbowEdgeStyle;rounded=0;orthogonalLoop=1;jettySize=auto;html=1;exitX=0;exitY=0.5;exitDx=0;exitDy=0;fontSize=12;startSize=8;endSize=8;strokeWidth=2;fillColor=#f8cecc;strokeColor=#b85450;" edge="1" parent="1" source="H4DuFjo4WlE8ik4pSTZ8-27" target="H4DuFjo4WlE8ik4pSTZ8-4">
          <mxGeometry relative="1" as="geometry">
            <mxPoint x="250" y="290" as="targetPoint" />
            <Array as="points">
              <mxPoint x="20" y="470" />
            </Array>
          </mxGeometry>
        </mxCell>
        <mxCell id="H4DuFjo4WlE8ik4pSTZ8-27" value="적을 공격할 &lt;br&gt;수 있는가?" style="rhombus;whiteSpace=wrap;html=1;rounded=0;labelBackgroundColor=none;strokeColor=default;" vertex="1" parent="1">
          <mxGeometry x="190" y="650" width="120" height="110" as="geometry" />
        </mxCell>
        <mxCell id="H4DuFjo4WlE8ik4pSTZ8-31" style="edgeStyle=elbowEdgeStyle;rounded=0;orthogonalLoop=1;jettySize=auto;html=1;exitX=0;exitY=0.5;exitDx=0;exitDy=0;fontSize=12;startSize=8;endSize=8;strokeWidth=2;fillColor=#f8cecc;strokeColor=#b85450;" edge="1" parent="1" source="H4DuFjo4WlE8ik4pSTZ8-29" target="H4DuFjo4WlE8ik4pSTZ8-4">
          <mxGeometry relative="1" as="geometry">
            <mxPoint x="250" y="290" as="targetPoint" />
            <Array as="points">
              <mxPoint x="20" y="520" />
            </Array>
          </mxGeometry>
        </mxCell>
        <mxCell id="H4DuFjo4WlE8ik4pSTZ8-37" value="" style="edgeStyle=none;curved=1;rounded=0;orthogonalLoop=1;jettySize=auto;html=1;fontSize=12;startSize=8;endSize=8;" edge="1" parent="1" source="H4DuFjo4WlE8ik4pSTZ8-29" target="H4DuFjo4WlE8ik4pSTZ8-36">
          <mxGeometry relative="1" as="geometry" />
        </mxCell>
        <mxCell id="H4DuFjo4WlE8ik4pSTZ8-29" value="적 공격" style="whiteSpace=wrap;html=1;rounded=0;labelBackgroundColor=none;" vertex="1" parent="1">
          <mxGeometry x="190" y="780" width="120" height="60" as="geometry" />
        </mxCell>
        <mxCell id="H4DuFjo4WlE8ik4pSTZ8-38" style="edgeStyle=elbowEdgeStyle;rounded=0;orthogonalLoop=1;jettySize=auto;html=1;exitX=1;exitY=0.5;exitDx=0;exitDy=0;fontSize=12;startSize=8;endSize=8;strokeWidth=2;fillColor=#f8cecc;strokeColor=#b85450;" edge="1" parent="1" source="H4DuFjo4WlE8ik4pSTZ8-36">
          <mxGeometry relative="1" as="geometry">
            <mxPoint x="310" y="240" as="targetPoint" />
            <Array as="points">
              <mxPoint x="360" y="530" />
            </Array>
          </mxGeometry>
        </mxCell>
        <mxCell id="H4DuFjo4WlE8ik4pSTZ8-36" value="적 HP가0인가?" style="rhombus;whiteSpace=wrap;html=1;rounded=0;labelBackgroundColor=none;" vertex="1" parent="1">
          <mxGeometry x="205" y="860" width="90" height="90" as="geometry" />
        </mxCell>
        <mxCell id="H4DuFjo4WlE8ik4pSTZ8-47" style="edgeStyle=none;curved=1;rounded=0;orthogonalLoop=1;jettySize=auto;html=1;exitX=0.5;exitY=1;exitDx=0;exitDy=0;entryX=0.5;entryY=0;entryDx=0;entryDy=0;fontSize=12;startSize=8;endSize=8;fillColor=#f8cecc;strokeColor=#b85450;strokeWidth=2;" edge="1" parent="1" source="H4DuFjo4WlE8ik4pSTZ8-44" target="H4DuFjo4WlE8ik4pSTZ8-8">
          <mxGeometry relative="1" as="geometry" />
        </mxCell>
        <mxCell id="H4DuFjo4WlE8ik4pSTZ8-50" value="" style="edgeStyle=none;curved=1;rounded=0;orthogonalLoop=1;jettySize=auto;html=1;fontSize=12;startSize=8;endSize=8;" edge="1" parent="1" source="H4DuFjo4WlE8ik4pSTZ8-44" target="H4DuFjo4WlE8ik4pSTZ8-49">
          <mxGeometry relative="1" as="geometry" />
        </mxCell>
        <mxCell id="H4DuFjo4WlE8ik4pSTZ8-44" value="내 HP가 0인가?" style="rhombus;whiteSpace=wrap;html=1;rounded=0;labelBackgroundColor=none;strokeColor=default;" vertex="1" parent="1">
          <mxGeometry x="205" y="310" width="90" height="80" as="geometry" />
        </mxCell>
        <mxCell id="H4DuFjo4WlE8ik4pSTZ8-49" value="사망" style="whiteSpace=wrap;html=1;rounded=1;labelBackgroundColor=none;" vertex="1" parent="1">
          <mxGeometry x="50" y="320" width="120" height="60" as="geometry" />
        </mxCell>
      </root>
    </mxGraphModel>
  </diagram>
</mxfile>
